<?xml version="1.0" encoding="UTF-8" standalone="no"?>
<svg
   xmlns:dc="http://purl.org/dc/elements/1.1/"
   xmlns:cc="http://creativecommons.org/ns#"
   xmlns:rdf="http://www.w3.org/1999/02/22-rdf-syntax-ns#"
   xmlns:svg="http://www.w3.org/2000/svg"
   xmlns="http://www.w3.org/2000/svg"
   viewBox="0 0 501.62668 114.46667"
   height="114.46667"
   width="501.62668"
   xml:space="preserve"
   id="svg2"
   version="1.1"><metadata
     id="metadata8"><rdf:RDF><cc:Work
         rdf:about=""><dc:format>image/svg+xml</dc:format><dc:type
           rdf:resource="http://purl.org/dc/dcmitype/StillImage" /></cc:Work></rdf:RDF></metadata><defs
     id="defs6" /><g
     transform="matrix(1.3333333,0,0,-1.3333333,0,114.46667)"
     id="g10"><g
       transform="scale(0.1)"
       id="g12"><path
         id="path14"
         style="fill:#231f20;fill-opacity:1;fill-rule:nonzero;stroke:none"
         d="m 1251.88,438.305 c 4.75,18.718 11.07,32.738 18.31,43.39 17.2,21.067 45.65,31.141 86.95,31.141 h 52.55 c 26.31,0 58.1,-1.981 70.57,-17.395 7.27,-8.996 8.72,-24.058 4.29,-44.765 0,0 -7.23,-34.711 -16.59,-79.524 h -230.93 z m -42.13,-190.575 7.56,34.192 h 346.25 l 34.63,162.117 c 12.1,56.609 6.03,101.211 -18.05,132.57 -26.19,34.121 -76.06,50.008 -156.98,50.008 h -34.48 c -89.34,0 -135.84,-12.433 -177.69,-47.512 -31.87,-26.714 -54.45,-64.128 -67.34,-111.308 -2.82,-8.981 -5.3,-18.305 -7.37,-28 l -54.95,-257.223 c -12.1,-56.605 -6.03,-101.2107 18.04,-132.5662 26.19,-34.1172 76.07,-50.01170625 156.99,-50.01170625 h 34.48 c 89.34,0 135.84,12.43750625 177.69,47.51170625 31.87,26.7188 54.46,64.1292 67.34,111.3122 2.81,8.981 5.3,18.297 7.37,28 l 5.83,27.274 h -114.01 c -4.88,-23.121 -8.21,-38.723 -8.54,-39.832 -2.87,-12.645 -7.5,-20.711 -16,-30.754 -18,-19.895 -47.13,-29.727 -88.14,-29.727 h -52.55 c -26.31,0 -58.1,1.977 -70.57,17.395 -7.27,8.996 -8.72,24.054 -4.3,44.765 l 14.79,71.789" /><path
         id="path16"
         style="fill:#231f20;fill-opacity:1;fill-rule:nonzero;stroke:none"
         d="m 3642.51,450.676 c 0,0 -7.24,-34.711 -16.59,-79.524 h -230.93 l 14.84,67.153 c 4.76,18.718 11.08,32.738 18.31,43.39 17.2,21.067 45.66,31.141 86.96,31.141 h 52.54 c 26.31,0 58.11,-1.981 70.57,-17.395 7.28,-8.996 8.73,-24.058 4.3,-44.765 z m 95.59,125.933 c -26.19,34.121 -76.07,50.008 -156.98,50.008 h -34.49 c -89.34,0 -135.83,-12.433 -177.69,-47.512 -31.86,-26.714 -54.45,-64.128 -67.33,-111.308 -2.82,-8.981 -5.3,-18.305 -7.37,-28 l -54.96,-257.223 c -12.09,-56.605 -6.02,-101.2107 18.05,-132.5662 26.19,-34.1172 76.07,-50.01170625 156.98,-50.01170625 h 34.49 c 89.33,0 135.84,12.43750625 177.68,47.51170625 31.88,26.7188 54.47,64.1292 67.35,111.3122 2.81,8.981 5.29,18.297 7.36,28 l 5.83,27.274 h -114.01 c -4.88,-23.121 -8.2,-38.723 -8.53,-39.832 -2.88,-12.645 -7.51,-20.711 -16,-30.754 -18,-19.895 -47.13,-29.727 -88.15,-29.727 h -52.55 c -26.31,0 -58.09,1.977 -70.56,17.395 -7.28,8.996 -8.73,24.054 -4.3,44.765 l 14.78,71.789 7.56,34.192 h 346.25 l 34.64,162.117 c 12.09,56.609 6.02,101.211 -18.05,132.57" /><path
         id="path18"
         style="fill:#231f20;fill-opacity:1;fill-rule:nonzero;stroke:none"
         d="m 2776.01,450.676 c 0,0 -21.5,-102.821 -35.28,-168.754 -2.23,-10.617 -22.31,-106.188 -22.74,-107.66 -2.88,-12.645 -7.51,-20.711 -16.02,-30.758 -17.99,-19.891 -47.12,-29.723 -88.13,-29.723 h -52.55 c -26.31,0 -58.1,1.977 -70.57,17.395 -7.27,8.996 -8.72,24.054 -4.3,44.769 l 14.79,71.785 27.28,123.422 14.85,67.157 c 4.75,18.714 11.06,32.726 18.31,43.39 17.2,21.067 45.65,31.137 86.95,31.137 h 52.55 c 26.31,0 58.1,-1.981 70.57,-17.395 7.27,-8.996 8.73,-24.058 4.29,-44.765 z m 113.65,-6.629 c 12.09,56.601 6.01,101.203 -18.06,132.562 -26.19,34.121 -76.06,50.004 -156.97,50.004 h -34.49 c -89.34,0 -135.84,-12.425 -177.69,-47.504 -31.87,-26.718 -54.45,-64.132 -67.33,-111.308 -2.83,-8.985 -5.31,-18.309 -7.38,-28.004 L 2372.78,182.57 c -12.09,-56.601 -6.01,-101.2067 18.06,-132.5583 26.19,-34.1211 76.06,-50.01560625 156.97,-50.01560625 h 34.49 c 89.34,0 135.84,12.43750625 177.69,47.51560625 31.86,26.7149 54.45,64.1253 67.33,111.3083 2.82,8.981 5.31,18.301 7.38,28 l 22.08,103.336 32.88,153.891" /><path
         id="path20"
         style="fill:#231f20;fill-opacity:1;fill-rule:nonzero;stroke:none"
         d="m 1934.57,342.223 c 0,0 -79.15,30.738 -121.27,46.765 -46.89,18.215 -33.32,39.793 -26.56,66.867 9.1,25.551 16.75,57.364 97.13,57.364 0,0 26.52,0 46.32,0 64.34,0 69.86,-16.817 62.64,-52.399 l -9.52,-44.496 h 116.74 c 0,0 3.1,13.629 9,41.492 3.66,17.313 14.82,74.286 -15.97,117.664 -31.27,44.075 -98.26,51.137 -144.93,51.137 0,0 -15.5,0 -50.35,0 -60.82,0 -105.15,-8.242 -142.25,-32.328 -46.93,-30.453 -68.54,-73.887 -81.82,-118.711 -8.93,-26.66 -12.42,-55.207 -8.07,-83.023 7.94,-38.481 25.19,-69.453 75.84,-96.996 12.81,-6.969 28.71,-12.485 46.03,-19.293 28.33,-11.133 69.67,-27.145 101.42,-39.262 18.2,-6.91 30.64,-15.434 32.16,-32.262 1.15,-12.844 -5.09,-31.469 -13.88,-52.379 -9.47,-22.843 -33.69,-39.16 -84.37,-39.16 h -44.57 c -23.4,0 -43.2,2.957 -52.97,8.453 -12.16,6.84 -15.35,17.727 -10.47,43.18 2.77,14.437 8.47,40.367 10.45,49.312 h -116.36 l -10.69,-48.085 c 0,0 -21.04,-77.9067 26.7,-127.106 24.21,-24.9414 71.16,-38.96090625 137.17,-38.96090625 h 39.9 c 60.69,0 183.88,1.14453625 226.5,155.03890625 l 3.98,15.133 c 4.3,16.195 9.79,44.027 -1.55,81.387 -12.72,40.144 -48.37,72.386 -96.38,90.668" /><path
         id="path22"
         style="fill:#231f20;fill-opacity:1;fill-rule:nonzero;stroke:none"
         d="M 418.199,616.051 H 254.48 c -37.585,0 -76.929,-8.289 -104.617,-37.645 C 125.285,552.359 110.004,508.469 100.73,467.926 91.3555,426.98 0,10.8828 0,10.8828 l 129.734,0.0313 98.883,449.1019 c 1.488,6.054 7.442,41.816 46.453,41.816 h 118.024 l 25.105,114.219" /><path
         id="path24"
         style="fill:#231f20;fill-opacity:1;fill-rule:nonzero;stroke:none"
         d="m 3273.46,616.051 h -163.73 c -37.58,0 -76.92,-8.289 -104.61,-37.645 -24.57,-26.047 -39.87,-69.937 -49.14,-110.48 C 2946.61,426.98 2855.25,10.8828 2855.25,10.8828 l 129.74,0.0313 98.89,449.1019 c 1.48,6.054 7.44,41.816 46.45,41.816 h 118.02 l 25.11,114.219" /><path
         id="path26"
         style="fill:#231f20;fill-opacity:1;fill-rule:nonzero;stroke:none"
         d="M 478.555,616.086 345.215,10.8477 h 129.73 L 608.16,616.086 H 478.555" /><path
         id="path28"
         style="fill:#231f20;fill-opacity:1;fill-rule:nonzero;stroke:none"
         d="M 877.949,125.172 H 733.988 c -45.328,0 -51.312,23.562 -44.312,56.324 l 54.953,257.219 c 13.445,62.945 58.633,62.945 79.93,62.945 h 136.117 z m 290.741,733.312 h -129.6 l -53.27,-242.41 -0.015,-0.066 H 823.527 c -46.789,0 -87.504,-14.203 -121.004,-42.223 -35.64,-29.828 -59.707,-73.043 -71.531,-128.437 L 576.039,188.129 C 563.945,131.527 570.012,86.9258 594.078,55.5586 616.863,25.8828 652.844,10.832 701.023,10.832 h 151.797 124.66 5.079 l 132.901,605.242 53.23,242.41" /><path
         id="path30"
         style="fill:#231f20;fill-opacity:1;fill-rule:nonzero;stroke:none"
         d="m 2381.08,501.551 25.11,114.219 h -71.96 l 0.07,0.359 18.35,83.473 H 2222.83 L 2107.91,176.773 h 0.01 c -3.98,-17.781 -6.98,-31.488 -8.6,-39.32 -15.76,-76.3319 19.95,-106.1014 47.9,-121.2577 45.64,-24.74218 115.69,-10.17186 145.69,-2.7656 l 5.04,108.2693 c -22.51,-5.472 -52.89,-11.371 -62.3,6.473 -4.81,9.129 -3.04,25.398 1.99,48.601 h -0.03 l 71.48,324.778 h 71.99" /></g></g></svg>